<?xml version="1.0" encoding="utf-8"?>
<!-- Generator: Adobe Illustrator 24.2.3, SVG Export Plug-In . SVG Version: 6.00 Build 0)  -->
<svg version="1.1" id="Layer_1" xmlns="http://www.w3.org/2000/svg" xmlns:xlink="http://www.w3.org/1999/xlink" x="0px" y="0px"
	 viewBox="0 0 28.87 19.5" style="enable-background:new 0 0 28.87 19.5;" xml:space="preserve">
<style type="text/css">
	.st0{fill:#6C757D;}
</style>
<path class="st0" d="M28.19,3.53c0.2,0.2,0.2,0.4,0.2,0.6c-1.5,3.4-4.7,8.2-7.1,10.6c-0.7,0.7-1.5,1.2-2.4,1.5
	c0,0.2-0.1,0.5-0.2,0.9c-0.2,0.7-0.7,1.5-1.7,1.7s-2.1,0.3-3.1,0.1c-0.2,0-0.4-0.1-0.6-0.1c-0.2-0.1-0.3-0.1-0.5-0.2
	c-0.1-0.1-0.2-0.2-0.2-0.3c-0.1-0.1-0.1-0.3,0-0.4c0.1-0.2,0.3-0.4,0.5-0.5c0.4-0.2,0.6-0.5,0.9-0.8c0.1-0.1,0.2-0.3,0.3-0.5
	l0.1-0.1c0.2-0.3,0.3-0.5,0.5-0.8c0.5-0.7,1.2-0.9,1.7-0.9c0.1,0,0.2,0,0.3,0c0.1-0.2,0.1-0.4,0.2-0.6c0.3-0.6,0.7-1.4,1.2-2.1
	c2.2-2.7,6.2-6.2,9.1-8.1C27.79,3.43,28.09,3.43,28.19,3.53z M17.09,15.33c-0.1-0.1-0.3-0.1-0.4-0.1c-0.2,0-0.6,0.1-0.9,0.5
	c-0.2,0.3-0.3,0.5-0.5,0.8l-0.1,0.2c-0.1,0.2-0.2,0.4-0.3,0.5c-0.2,0.3-0.4,0.6-0.8,0.9c0.9,0.1,1.8,0.1,2.7-0.1
	c0.6-0.1,0.8-0.6,1-1.1c0.1-0.2,0.1-0.5,0.1-0.8C17.89,16.13,17.09,15.33,17.09,15.33z M18.49,15.33c0.1,0,0.3-0.1,0.5-0.2
	c0.6-0.3,1.1-0.6,1.5-1.1c1.9-2,4.4-5.6,6.1-8.6c-2.6,2-5.6,4.7-7.3,6.8c-0.4,0.5-0.8,1.2-1,1.8c-0.1,0.2-0.2,0.5-0.3,0.7
	C17.99,14.83,18.49,15.33,18.49,15.33z M13.59,18.43L13.59,18.43L13.59,18.43L13.59,18.43z M17.19,15.33L17.19,15.33L17.19,15.33
	L17.19,15.33z"/>
<path class="st0" d="M9.94,3.25c0.6,0,1,0.4,1,1v12c0,0.6-0.4,1-1,1h-6c-0.6,0-1-0.4-1-1v-12c0-0.6,0.4-1,1-1H9.94z M3.94,2.25
	c-1.1,0-2,0.9-2,2v12c0,1.1,0.9,2,2,2h6c1.1,0,2-0.9,2-2v-12c0-1.1-0.9-2-2-2H3.94z"/>
<path class="st0" d="M6.94,16.25c0.6,0,1-0.4,1-1s-0.4-1-1-1s-1,0.4-1,1S6.34,16.25,6.94,16.25z"/>
</svg>
