<?xml version="1.0" encoding="utf-8"?>
<!-- Generator: Adobe Illustrator 24.2.3, SVG Export Plug-In . SVG Version: 6.00 Build 0)  -->
<svg version="1.1" id="Layer_1" xmlns="http://www.w3.org/2000/svg" xmlns:xlink="http://www.w3.org/1999/xlink" x="0px" y="0px"
	 viewBox="0 0 16 16" style="enable-background:new 0 0 16 16;" xml:space="preserve">
<style type="text/css">
	.st0{fill:#766DF4;}
</style>
<path class="st0" d="M15.8,0.1C16,0.3,16,0.5,16,0.7c-1.5,3.4-4.7,8.2-7.1,10.6c-0.7,0.7-1.5,1.2-2.4,1.5c0,0.2-0.1,0.5-0.2,0.9
	c-0.2,0.7-0.7,1.5-1.7,1.7c-1,0.2-2.1,0.3-3.1,0.1c-0.2,0-0.4-0.1-0.6-0.1c-0.2-0.1-0.3-0.1-0.5-0.2c-0.1-0.1-0.2-0.2-0.2-0.3
	c-0.1-0.1-0.1-0.3,0-0.4c0.1-0.2,0.3-0.4,0.5-0.5c0.4-0.2,0.6-0.5,0.9-0.8c0.1-0.1,0.2-0.3,0.3-0.5L2,12.6c0.2-0.3,0.3-0.5,0.5-0.8
	c0.5-0.7,1.2-0.9,1.7-0.9c0.1,0,0.2,0,0.3,0c0.1-0.2,0.1-0.4,0.2-0.6c0.3-0.6,0.7-1.4,1.2-2.1c2.2-2.7,6.2-6.2,9.1-8.1
	C15.4,0,15.7,0,15.8,0.1z M4.7,11.9c-0.1-0.1-0.3-0.1-0.4-0.1c-0.2,0-0.6,0.1-0.9,0.5c-0.2,0.3-0.3,0.5-0.5,0.8l-0.1,0.2
	c-0.1,0.2-0.2,0.4-0.3,0.5c-0.2,0.3-0.4,0.6-0.8,0.9c0.9,0.1,1.8,0.1,2.7-0.1c0.6-0.1,0.8-0.6,1-1.1c0.1-0.2,0.1-0.5,0.1-0.8
	C5.5,12.7,4.7,11.9,4.7,11.9z M6.1,11.9c0.1,0,0.3-0.1,0.5-0.2c0.6-0.3,1.1-0.6,1.5-1.1c1.9-2,4.4-5.6,6.1-8.6
	C11.6,4,8.6,6.7,6.9,8.8c-0.4,0.5-0.8,1.2-1,1.8c-0.1,0.2-0.2,0.5-0.3,0.7C5.6,11.4,6.1,11.9,6.1,11.9z M1.2,15L1.2,15
	C1.2,15,1.2,15,1.2,15L1.2,15z M4.8,11.9L4.8,11.9L4.8,11.9L4.8,11.9z"/>
</svg>
