<?xml version="1.0" encoding="utf-8"?>
<!-- Generator: Adobe Illustrator 24.2.3, SVG Export Plug-In . SVG Version: 6.00 Build 0)  -->
<svg version="1.1" id="Layer_1" xmlns="http://www.w3.org/2000/svg" xmlns:xlink="http://www.w3.org/1999/xlink" x="0px" y="0px"
	 viewBox="0 0 16 16" style="enable-background:new 0 0 16 16;" xml:space="preserve">
<style type="text/css">
	.st0{fill:#766DF4;}
</style>
<path class="st0" d="M1.3,2.7C1.3,1.2,4.3,0,8,0s6.7,1.2,6.7,2.7V4c0,1.5-3,2.7-6.7,2.7S1.3,5.5,1.3,4V2.7z"/>
<path class="st0" d="M1.3,6.3v3c0,1.5,3,2.7,6.7,2.7s6.7-1.2,6.7-2.7v-3c-0.4,0.3-0.9,0.6-1.5,0.8C11.8,7.7,10,8,8,8
	S4.2,7.7,2.8,7.1C2.3,6.9,1.8,6.7,1.3,6.3z"/>
<path class="st0" d="M14.7,11.7c-0.4,0.3-0.9,0.6-1.5,0.8C11.8,13,10,13.3,8,13.3S4.2,13,2.8,12.5c-0.5-0.2-1-0.5-1.5-0.8v1.7
	c0,1.5,3,2.7,6.7,2.7s6.7-1.2,6.7-2.7V11.7z"/>
</svg>
