<?xml version="1.0" encoding="utf-8"?>
<!-- Generator: Adobe Illustrator 24.2.3, SVG Export Plug-In . SVG Version: 6.00 Build 0)  -->
<svg version="1.1" id="Layer_1" xmlns="http://www.w3.org/2000/svg" xmlns:xlink="http://www.w3.org/1999/xlink" x="0px" y="0px"
	 viewBox="0 0 28.87 19.5" style="enable-background:new 0 0 28.87 19.5;" xml:space="preserve">
<style type="text/css">
	.st0{fill:#6C757D;}
</style>
<path class="st0" d="M1.02,9.3c0-4.4,3.6-8,8-8s8,3.6,8,8s-3.6,8-8,8S1.02,13.7,1.02,9.3z M8.52,2.4c-0.7,0.2-1.3,0.8-1.9,1.8
	c-0.2,0.4-0.3,0.7-0.5,1.1h2.4V2.4z M5.12,5.3c0.2-0.5,0.4-1,0.6-1.5c0.2-0.3,0.4-0.6,0.6-0.9c-1.2,0.4-2.3,1.3-3,2.4H5.12z
	 M4.52,8.8c0-0.9,0.1-1.7,0.3-2.5h-2.1c-0.4,0.8-0.6,1.6-0.7,2.5H4.52z M5.82,6.3c-0.1,0.8-0.3,1.7-0.3,2.5h3V6.3H5.82z M9.52,6.3
	v2.5h3c0-0.8-0.1-1.7-0.3-2.5H9.52z M5.52,9.8c0,0.8,0.1,1.7,0.3,2.5h2.7V9.8H5.52z M9.52,9.8v2.5h2.7c0.2-0.8,0.3-1.6,0.3-2.5H9.52
	z M6.12,13.3c0.1,0.4,0.3,0.7,0.5,1.1c0.6,1,1.2,1.6,1.9,1.9v-3C8.52,13.3,6.12,13.3,6.12,13.3z M6.32,15.8
	c-0.2-0.3-0.4-0.6-0.6-0.9c-0.3-0.5-0.5-1-0.6-1.5h-1.8C4.02,14.4,5.12,15.3,6.32,15.8z M4.82,12.3c-0.2-0.8-0.3-1.7-0.3-2.5h-2.5
	c0.1,0.9,0.3,1.7,0.7,2.5H4.82z M11.72,15.8c1.2-0.5,2.3-1.4,3.1-2.5h-1.8c-0.2,0.5-0.4,1-0.6,1.5C12.12,15.2,11.92,15.5,11.72,15.8
	z M9.52,13.3v2.9c0.7-0.2,1.3-0.8,1.9-1.9c0.2-0.3,0.3-0.7,0.5-1.1C11.92,13.3,9.52,13.3,9.52,13.3z M13.22,12.3h2.1
	c0.4-0.8,0.6-1.6,0.7-2.5h-2.5C13.52,10.6,13.42,11.5,13.22,12.3z M16.02,8.8c-0.1-0.9-0.3-1.7-0.7-2.5h-2.1
	c0.2,0.8,0.3,1.6,0.3,2.5H16.02z M12.32,3.8c0.2,0.5,0.5,1,0.6,1.5h1.8c-0.8-1.1-1.8-2-3.1-2.5C11.92,3.1,12.12,3.4,12.32,3.8z
	 M11.92,5.3c-0.1-0.4-0.3-0.7-0.5-1.1c-0.6-1-1.2-1.7-1.9-1.9v3H11.92z"/>
<path class="st0" d="M22.27,11.04c-1.37,0-2.44,1.07-2.44,2.44s1.14,2.44,2.44,2.44c1.29,0,2.44-1.14,2.44-2.44
	S23.64,11.04,22.27,11.04z M20.6,13.48c0-0.91,0.76-1.68,1.68-1.68c0.91,0,1.68,0.76,1.68,1.68s-0.76,1.68-1.68,1.68
	C21.36,15.15,20.6,14.39,20.6,13.48z"/>
<path class="st0" d="M23.64,8.38c-0.38-1.37-2.36-1.37-2.74,0l-0.08,0.3c-0.08,0.3-0.46,0.53-0.84,0.46c-0.08,0-0.08,0-0.15-0.08
	l-0.15-0.15c-1.29-0.69-2.66,0.69-1.98,1.98l0.15,0.23c0.15,0.3,0.08,0.76-0.23,0.91c-0.08,0-0.08,0.08-0.15,0.08h-0.3
	c-1.37,0.38-1.37,2.36,0,2.74l0.23,0.08c0.38,0.08,0.61,0.46,0.53,0.84c0,0.08,0,0.08-0.08,0.15l-0.15,0.15
	c-0.69,1.22,0.69,2.59,1.9,1.9l0.23-0.15c0.3-0.15,0.76-0.08,0.91,0.23c0,0.08,0.08,0.08,0.08,0.15l0.08,0.23
	c0.38,1.37,2.36,1.37,2.74,0l0.08-0.23c0.08-0.38,0.46-0.53,0.84-0.46c0.08,0,0.08,0,0.15,0.08l0.23,0.15
	c1.22,0.69,2.59-0.69,1.9-1.9l-0.15-0.23c-0.15-0.3-0.08-0.76,0.23-0.91c0.08,0,0.08-0.08,0.15-0.08l0.23-0.08
	c1.37-0.38,1.37-2.36,0-2.74l-0.23-0.08c-0.3,0-0.53-0.38-0.46-0.76c0-0.08,0-0.08,0.08-0.15l0.15-0.15c0.69-1.22-0.69-2.59-1.9-1.9
	l-0.23,0.15c-0.3,0.15-0.76,0.08-0.91-0.23c0-0.08-0.08-0.08-0.08-0.15C23.72,8.68,23.64,8.38,23.64,8.38z M21.66,8.61
	c0.15-0.61,1.07-0.61,1.29,0l0.08,0.23c0.23,0.76,0.99,1.22,1.75,0.99c0.08,0,0.23-0.08,0.3-0.15l0.23-0.15
	c0.61-0.3,1.22,0.3,0.91,0.91l-0.15,0.23c-0.38,0.69-0.15,1.52,0.53,1.9c0.08,0.15,0.15,0.15,0.3,0.23l0.23,0.08
	c0.61,0.15,0.61,1.07,0,1.29l-0.23,0.08c-0.76,0.23-1.22,0.99-0.99,1.75c0,0.08,0.08,0.23,0.15,0.3l0.15,0.23
	c0.3,0.61-0.3,1.22-0.91,0.91l-0.23-0.15c-0.69-0.38-1.52-0.15-1.9,0.53c-0.15,0.08-0.15,0.15-0.23,0.3l-0.08,0.23
	c-0.15,0.61-1.07,0.61-1.29,0l-0.08-0.23c-0.23-0.76-0.99-1.22-1.75-0.99c-0.08,0-0.15,0.08-0.3,0.15l-0.23,0.15
	c-0.61,0.3-1.22-0.3-0.91-0.91l0.15-0.23c0.38-0.69,0.15-1.52-0.53-1.9c-0.08-0.15-0.15-0.15-0.3-0.23l-0.23-0.08
	c-0.61-0.15-0.61-1.07,0-1.29l0.23-0.08c0.76-0.23,1.22-0.99,0.99-1.75c0-0.08-0.08-0.15-0.15-0.3l-0.08-0.15
	c-0.3-0.61,0.3-1.22,0.91-0.91l0.23,0.15c0.69,0.38,1.52,0.15,1.9-0.53c0.08-0.15,0.08-0.23,0.15-0.38L21.66,8.61z"/>
</svg>
