<?xml version="1.0" encoding="utf-8"?>
<!-- Generator: Adobe Illustrator 24.2.3, SVG Export Plug-In . SVG Version: 6.00 Build 0)  -->
<svg version="1.1" id="Layer_1" xmlns="http://www.w3.org/2000/svg" xmlns:xlink="http://www.w3.org/1999/xlink" x="0px" y="0px"
	 viewBox="0 0 28.87 19.5" style="enable-background:new 0 0 28.87 19.5;" xml:space="preserve">
<style type="text/css">
	.st0{fill:#6C757D;}
</style>
<path class="st0" d="M1.02,9.3c0-4.4,3.6-8,8-8s8,3.6,8,8s-3.6,8-8,8S1.02,13.7,1.02,9.3z M8.52,2.4c-0.7,0.2-1.3,0.8-1.9,1.8
	c-0.2,0.4-0.3,0.7-0.5,1.1h2.4V2.4z M5.12,5.3c0.2-0.5,0.4-1,0.6-1.5c0.2-0.3,0.4-0.6,0.6-0.9c-1.2,0.4-2.3,1.3-3,2.4H5.12z
	 M4.52,8.8c0-0.9,0.1-1.7,0.3-2.5h-2.1c-0.4,0.8-0.6,1.6-0.7,2.5H4.52z M5.82,6.3c-0.1,0.8-0.3,1.7-0.3,2.5h3V6.3H5.82z M9.52,6.3
	v2.5h3c0-0.8-0.1-1.7-0.3-2.5H9.52z M5.52,9.8c0,0.8,0.1,1.7,0.3,2.5h2.7V9.8H5.52z M9.52,9.8v2.5h2.7c0.2-0.8,0.3-1.6,0.3-2.5H9.52
	z M6.12,13.3c0.1,0.4,0.3,0.7,0.5,1.1c0.6,1,1.2,1.6,1.9,1.9v-3C8.52,13.3,6.12,13.3,6.12,13.3z M6.32,15.8
	c-0.2-0.3-0.4-0.6-0.6-0.9c-0.3-0.5-0.5-1-0.6-1.5h-1.8C4.02,14.4,5.12,15.3,6.32,15.8z M4.82,12.3c-0.2-0.8-0.3-1.7-0.3-2.5h-2.5
	c0.1,0.9,0.3,1.7,0.7,2.5H4.82z M11.72,15.8c1.2-0.5,2.3-1.4,3.1-2.5h-1.8c-0.2,0.5-0.4,1-0.6,1.5C12.12,15.2,11.92,15.5,11.72,15.8
	z M9.52,13.3v2.9c0.7-0.2,1.3-0.8,1.9-1.9c0.2-0.3,0.3-0.7,0.5-1.1C11.92,13.3,9.52,13.3,9.52,13.3z M13.22,12.3h2.1
	c0.4-0.8,0.6-1.6,0.7-2.5h-2.5C13.52,10.6,13.42,11.5,13.22,12.3z M16.02,8.8c-0.1-0.9-0.3-1.7-0.7-2.5h-2.1
	c0.2,0.8,0.3,1.6,0.3,2.5H16.02z M12.32,3.8c0.2,0.5,0.5,1,0.6,1.5h1.8c-0.8-1.1-1.8-2-3.1-2.5C11.92,3.1,12.12,3.4,12.32,3.8z
	 M11.92,5.3c-0.1-0.4-0.3-0.7-0.5-1.1c-0.6-1-1.2-1.7-1.9-1.9v3H11.92z"/>
<path class="st0" d="M28.19,3.53c0.2,0.2,0.2,0.4,0.2,0.6c-1.5,3.4-4.7,8.2-7.1,10.6c-0.7,0.7-1.5,1.2-2.4,1.5
	c0,0.2-0.1,0.5-0.2,0.9c-0.2,0.7-0.7,1.5-1.7,1.7s-2.1,0.3-3.1,0.1c-0.2,0-0.4-0.1-0.6-0.1c-0.2-0.1-0.3-0.1-0.5-0.2
	c-0.1-0.1-0.2-0.2-0.2-0.3c-0.1-0.1-0.1-0.3,0-0.4c0.1-0.2,0.3-0.4,0.5-0.5c0.4-0.2,0.6-0.5,0.9-0.8c0.1-0.1,0.2-0.3,0.3-0.5
	l0.1-0.1c0.2-0.3,0.3-0.5,0.5-0.8c0.5-0.7,1.2-0.9,1.7-0.9c0.1,0,0.2,0,0.3,0c0.1-0.2,0.1-0.4,0.2-0.6c0.3-0.6,0.7-1.4,1.2-2.1
	c2.2-2.7,6.2-6.2,9.1-8.1C27.79,3.43,28.09,3.43,28.19,3.53z M17.09,15.33c-0.1-0.1-0.3-0.1-0.4-0.1c-0.2,0-0.6,0.1-0.9,0.5
	c-0.2,0.3-0.3,0.5-0.5,0.8l-0.1,0.2c-0.1,0.2-0.2,0.4-0.3,0.5c-0.2,0.3-0.4,0.6-0.8,0.9c0.9,0.1,1.8,0.1,2.7-0.1
	c0.6-0.1,0.8-0.6,1-1.1c0.1-0.2,0.1-0.5,0.1-0.8C17.89,16.13,17.09,15.33,17.09,15.33z M18.49,15.33c0.1,0,0.3-0.1,0.5-0.2
	c0.6-0.3,1.1-0.6,1.5-1.1c1.9-2,4.4-5.6,6.1-8.6c-2.6,2-5.6,4.7-7.3,6.8c-0.4,0.5-0.8,1.2-1,1.8c-0.1,0.2-0.2,0.5-0.3,0.7
	C17.99,14.83,18.49,15.33,18.49,15.33z M13.59,18.43L13.59,18.43L13.59,18.43L13.59,18.43z M17.19,15.33L17.19,15.33L17.19,15.33
	L17.19,15.33z"/>
</svg>
