<?xml version="1.0" encoding="utf-8"?>
<!-- Generator: Adobe Illustrator 24.2.3, SVG Export Plug-In . SVG Version: 6.00 Build 0)  -->
<svg version="1.1" id="aea587a3-a3e8-4e0f-8220-a5d1e661ad74"
	 xmlns="http://www.w3.org/2000/svg" xmlns:xlink="http://www.w3.org/1999/xlink" x="0px" y="0px" viewBox="0 0 959.3 686"
	 style="enable-background:new 0 0 959.3 686;" xml:space="preserve">
<style type="text/css">
	.st0{fill:#2F2E41;}
	.st1{fill:#FFB8B8;}
	.st2{fill:#D0CDE1;}
	.st3{fill:url(#SVGID_1_);}
	.st4{fill:url(#SVGID_2_);}
	.st5{fill:url(#SVGID_3_);}
	.st6{fill:url(#SVGID_4_);}
</style>
<path class="st0" d="M488.3,495.5h-64.1l-7.1-17.5l-3.1,17.5h-60.3c-1.9-19.2-4-39.3-5.6-52.5c-4-33,14-54,14-54s88-2,101,1
	C470.4,391.6,480.8,447.6,488.3,495.5z"/>
<path class="st1" d="M386.5,194.4c0,0,9,25,2,39s11,30,11,30s47-24,41-36s-16-28-14-38L386.5,194.4z"/>
<circle class="st1" cx="404" cy="171.9" r="32"/>
<path class="st2" d="M381,231.9c0,0,32.1,26.7,56.1-11.1l24.9,14.1l13,152c0,0-73,42-108,6l5-141L381,231.9z"/>
<linearGradient id="SVGID_1_" gradientUnits="userSpaceOnUse" x1="341.038" y1="326.4279" x2="391.121" y2="326.4279">
	<stop  offset="0" style="stop-color:#766DF4"/>
	<stop  offset="1" style="stop-color:#6A9BF4"/>
</linearGradient>
<polygon class="st3" points="391.1,216.9 346,246.9 362,320.9 341,435.9 375,384.9 "/>
<linearGradient id="SVGID_2_" gradientUnits="userSpaceOnUse" x1="418.7946" y1="329.2575" x2="499.0381" y2="329.2575">
	<stop  offset="0" style="stop-color:#766DF4"/>
	<stop  offset="1" style="stop-color:#6A9BF4"/>
</linearGradient>
<path class="st4" d="M431,208.6l11.1,7.3l45,16l-7,124l19,80l-27,14c0,0-5-38-36-57S423.9,214.3,431,208.6z"/>
<path class="st1" d="M356,402.9l13,9c0,0-16.5,17.5-19.5,14.5c-1.8-1.7-2.7-4.1-2.5-6.5l-3-7L356,402.9z"/>
<path class="st1" d="M442.5,401l-4.4,6.9c0,0-13,6-10,10s28,13,33,4l5-9L442.5,401z"/>
<linearGradient id="SVGID_3_" gradientUnits="userSpaceOnUse" x1="331.6783" y1="332.8306" x2="369.0381" y2="332.8306">
	<stop  offset="0" style="stop-color:#766DF4"/>
	<stop  offset="1" style="stop-color:#6A9BF4"/>
</linearGradient>
<path class="st5" d="M352,245.9l-7,1l-11.5,74.5c0,0-4.5,13.5,0.5,45.5s10,52.8,10,52.8l22-15.8l-10-26l13-95L352,245.9z"/>
<linearGradient id="SVGID_4_" gradientUnits="userSpaceOnUse" x1="439.038" y1="325.4118" x2="510.198" y2="325.4118">
	<stop  offset="0" style="stop-color:#766DF4"/>
	<stop  offset="1" style="stop-color:#6A9BF4"/>
</linearGradient>
<path class="st6" d="M471,229.9l16,2c0,0,18,19,21,39s2,77,2,77l-46,73l-25-18l35-62l-17-74L471,229.9z"/>
<path class="st0" d="M434.6,143c-4.8-7.9-12.4-13.6-21.3-16.3l-6.5,5.2l2.5-6.1c-2.1-0.3-4.3-0.4-6.4-0.4L397,133l2.4-7.3
	c-10.3,1.3-19.5,6.8-25.5,15.2c-7.4,10.7-8.7,25.7-1.4,36.5c2-6.2,4.5-12,6.5-18.2c1.6,0.2,3.2,0.2,4.8,0l2.4-5.7l0.7,5.5
	c7.6-0.7,18.8-2.1,26-3.4l-0.7-4.2l4.2,3.5c2.2-0.5,3.5-1,3.4-1.3c5.3,8.6,10.6,14.1,16,22.7C437.8,164.2,441.4,154.1,434.6,143z"/>
<ellipse class="st1" cx="432.8" cy="170.9" rx="2.2" ry="4.3"/>
<path class="st0" d="M959.2,51.2c0-0.1,0.1-0.2,0.1-0.3c0,0,0,0.1,0,0.1L959.2,51.2z"/>
<path class="st0" d="M379,159.3c0,0,22.2,6,46.2,2.2s-9.5-19.4-9.5-19.4S378.4,150.3,379,159.3z"/>
<path class="st0" d="M399.5,125.7c0,0,9.4-0.6,13.8,1c4.4,1.6-2.1,12.1-2.1,12.1h-17.3L399.5,125.7z"/>
</svg>
